<?xml version="1.0" encoding="UTF-8"?> <svg xmlns="http://www.w3.org/2000/svg" viewBox="0 0 641 124.86"><title>FreshySites Formal Horizontal Logo</title><g id="FreshySites_Horizontal" data-name="FreshySites Horizontal"><g id="FreshySites"><path id="Sites" d="M485.85,78.18c0,10.21-1.79,15.59-6.28,18.51-4.26,2.69-9.53,3.48-24.79,3.48-10.43,0-13.91-.56-18.28-3-2.92-1.68-5.27-5.27-6.06-9.09-.67-3.25-.89-5.38-1-11.77h8.41c.12,8.07.23,9.53,1.69,12.22,2,3.81,4.48,4.38,18,4.38,18,0,20-1.58,20-15.48,0-6.28-1.23-9.2-4.6-10.55-2.13-.89-2.13-.89-15.81-1.68-13.91-.67-14.92-.9-18.63-2.58-6-3-8.52-8.08-8.52-17.5,0-8.75,1.8-14,5.61-16.94,4.26-3.36,9.64-4.37,22.43-4.37,14.14,0,19.86,1.46,23.33,6.17,2.36,3.14,3.26,7,3.26,13.69V44.9l-8.52,0c0-5.5-.33-7.63-1.57-9.65-2-3.25-5.49-4.15-15.59-4.15-11.66,0-15.59.67-17.95,3.37-1.79,2-2.69,5.16-2.69,9.87,0,6.73,1.57,10.09,5.39,11.55,2.46.9,3,1,15.48,1.57,13.79.67,17.94,1.46,21.31,4.15C484.4,64.58,485.85,69.21,485.85,78.18Zm9.33,21.25h7.63V47h-7.63Zm27.52-65h-7.63v51c0,4.74.12,6.09.79,8,1.66,4.6,5.93,6.73,14,6.73l7,0V93.62H530c-5.83,0-7.29-1.68-7.29-8.19v-32h14.16V47H522.7ZM630.79,70.1c-2-.34-2-.34-12-.79-9.42-.44-9.42-.44-10.77-1-2.35-.78-3.25-2.92-3.25-7.63,0-7.3,1.68-8.3,13.57-8.3,12.12,0,13.35.79,13.46,8.3l7.6.07c0-4.82-.34-6.63-1.46-8.63-2.47-4.15-7.85-5.84-19.29-5.84-17.28,0-21.65,3-21.65,14.7,0,8.41,2.36,12.23,8.52,13.68,3.08.79,12.34,1.57,20.08,1.69,5.95,0,7.52,1.68,7.52,8.18,0,7.74-2.77,9.54-15,9.54-6.4,0-10.21-.68-11.56-1.91-1.45-1.51-2.24-4-2.24-7,0-.82,0-1.65.11-2.47h-7.85c-.11,1.09-.11,2.32-.11,3,0,4.93,1.57,8.75,4.37,10.88,3.59,2.69,8,3.59,17.5,3.59,10.44,0,15.26-1,18.51-3.7C639.54,94.1,641,90,641,84.68,641,75.82,637.79,71.33,630.79,70.1Zm-46.48,3.09h7.63a27.16,27.16,0,1,1-3.13-12.64l-6.44,4.18L549.84,85.82a19.54,19.54,0,0,0,34.47-12.63ZM546.1,79l31.59-20.48a19.43,19.43,0,0,0-12.93-4.91h0A19.56,19.56,0,0,0,546.1,79ZM499,24.31a4.56,4.56,0,1,0,4.56,4.56A4.56,4.56,0,0,0,499,24.31Z" fill="#dbe442"></path><path id="Freshy" d="M152.62,24.56H184v7.3H154.8a8.24,8.24,0,0,0-8.24,8.24V57.88H183V65H146.56V99.43h-8.41V39A14.47,14.47,0,0,1,152.62,24.56ZM307.68,70.1c-2-.34-2-.34-12-.79-9.43-.44-9.43-.44-10.77-1-2.36-.78-3.25-2.92-3.25-7.63,0-7.3,1.68-8.3,13.57-8.3,12.11,0,13.35.79,13.46,8.3l7.59.07c0-4.82-.34-6.63-1.46-8.63-2.47-4.15-7.85-5.84-19.3-5.84-17.27,0-21.64,3-21.64,14.7,0,8.41,2.35,12.23,8.52,13.68,3.08.79,12.34,1.57,20.08,1.69,5.95,0,7.52,1.68,7.52,8.18,0,7.74-2.77,9.54-15,9.54-6.39,0-10.2-.68-11.55-1.91-1.46-1.51-2.24-4-2.24-7,0-.82,0-1.65.11-2.47h-7.85c-.11,1.09-.11,2.32-.11,3,0,4.93,1.57,8.75,4.37,10.88,3.59,2.69,8,3.59,17.5,3.59,10.43,0,15.25-1,18.51-3.7,2.69-2.36,4.15-6.51,4.15-11.78C317.89,75.82,314.63,71.33,307.68,70.1Zm41.68-23.89c-9.65,0-14.27,2.14-16.27,7.29h-.22l0-28.94h-7.63V99.43h7.63V69.92c0-4.93.45-8.77,1.34-10.77,1.76-4.48,6.36-6.39,15-6.39,6.28,0,9.08,1.08,10.76,4,1.12,2,1.35,3.25,1.35,9.2V99.43H369V66c0-6.74-.34-9.32-1.69-12.12C364.61,48.46,359.56,46.21,349.36,46.21Zm63.73.79V81.89c0,9.32-2.36,11.71-11.54,11.76h-4.73c-9.18-.05-11.53-2.44-11.53-11.76V47h-7.72V81.89c0,12.71,5.2,18.11,17.73,18.27h.07v24.7H403v-24.7h.07c12.54-.16,17.74-5.56,17.74-18.27V47ZM260.62,73.19h7.62a27.16,27.16,0,1,1-3.13-12.64l-6.44,4.18L226.14,85.82a19.55,19.55,0,0,0,34.48-12.63ZM222.4,79,254,58.55A19.54,19.54,0,0,0,222.4,79Zm-1.9-32.88h-17A14.47,14.47,0,0,0,189,60.62V99.43h8.41V61.73a8.23,8.23,0,0,1,8.21-8.23h7.85A34.62,34.62,0,0,1,220.5,46.15Z" fill="#00b140"></path></g><g id="Lime"><path id="Guts" d="M56,54.22a1.23,1.23,0,0,0,1.55-.77v0a.74.74,0,0,0,0-.21s-11-32.16-15.15-37C40.66,14.17,26.63,21.4,28,25,28,25,41.5,41.77,56,54.22ZM39.77,35.43c-1.58-5.15,15.41,15.81,15.41,15.81S41.36,40.62,39.77,35.43ZM45,29.2v0c.3-1.33,8.34,17.32,7.92,16.65S44.63,30.51,45,29.2Zm5.89,15.18c-.76-1.13-11.12-16.5-11.34-20.29S50.06,42.74,50.84,44.38ZM61.57,61.64a1.22,1.22,0,0,0-1.49.87h0v.21S72.92,94.2,77.34,98.85c1.81,1.9,15.39-6.13,13.82-9.61C91.13,89.24,76.69,73.25,61.57,61.64ZM67.5,72.48c0-3.51,12.39,21,12.39,21S67.5,76,67.5,72.48Zm7.26,5.61h0c.23-2.33,7,11.22,7,11.22S74.5,80.43,74.76,78.09Zm-13-24a1.22,1.22,0,0,0,.79,1.52h.21C81.11,50.51,100.5,41.1,100.5,41.1c2.77-2.66-6.41-15.43-8.8-14.34C85.87,29.43,61.75,54.07,61.75,54.07Zm30-14.35h0c0,1.7-17.21,8.47-17.21,8.47S91.76,38,91.72,39.72Zm-.85-8.42h0C90.11,34.78,72.06,49,72.06,49S91.65,27.83,90.87,31.3ZM85.3,46.43c-.47,1-17.27,5.14-17.27,5.14S85.68,45.43,85.3,46.43ZM56.17,60.58h0l-.21.06S32,87.18,29.58,93.55c-1.29,3.5,14,11.59,16.51,8.45,0,0,7.83-20.64,11.61-40.43A1.28,1.28,0,0,0,56.17,60.58ZM44.63,99.22c-1.23-1.73,3.45-16.88,3.45-16.88S45.87,101,44.63,99.22Zm-.91-12.7C43.06,85.43,51.19,72,51.19,72S44.41,87.62,43.72,86.52ZM37.15,88.3h0c-1.08-1.71,17.61-23,17.61-23S38.22,90,37.15,88.3Zm18.14-28a1.22,1.22,0,0,0-.79-1.53l-.2-.05S20.58,70.68,15.67,74.82c-2,1.7,5.66,15.75,9.21,14.42C24.88,89.24,42.87,74.76,55.29,60.34Zm-16.71,9s-12.22,4.79-13,3.93S38.58,69.34,38.58,69.34ZM23.11,77.17C22.45,76.6,39.71,70,39.71,70S23.75,77.74,23.11,77.17ZM41.5,69.92s-9.18,6.51-10.84,6.31S41.5,69.92,41.5,69.92ZM28.21,83.43c-2.59.1,20.07-18.71,20.07-18.71S30.8,83.35,28.21,83.43ZM57.84,63l0,0a1.09,1.09,0,0,0-.13.17s-3.61,32.63-2,38.83c1,4.06,16.49,2.11,16.76-1.69,0,0-5.05-20-12.88-37.38A1.21,1.21,0,0,0,57.84,63Zm.78,8.57c.46-3.75.7,28,.7,28S58.16,75.28,58.62,71.55Zm3.73,5.14c.47-8.42,4.21,23.37,4.21,23.37s-4.65-15-4.19-23.37Zm0,22.9a98,98,0,0,1-1.14-14.72h0C61.42,79,62.35,99.59,62.35,99.59Zm-8-43,.4.08a1.29,1.29,0,0,0,1-1.52v0a.83.83,0,0,0-.06-.21S30.35,32.25,24,29.89C20.52,28.6,12.62,43,15.76,45.56A279.62,279.62,0,0,0,43.5,54.14c-10.09-1.9-24.33-4.31-28.28-3.62-4.72.83-3.73,17.06,0,17.65,0,0,20.86-3.82,38.85-10.09A1.21,1.21,0,0,0,54.32,56.56ZM36.26,45.62c-.53-.48-4.66-4.19-5.53-5.55s13.92,9.64,15,11.59c0,0-14.49-6.66-15.31-8.59S35.51,45.12,36.26,45.62ZM43,57.31h0s-9.84-1.88-10.48-2.19S41.63,55.8,43,57.31Zm-1.82.87h0s-22.64.31-23.59-1S41.18,58.18,41.18,58.18Zm.25.66c-.2,0-12.11,2.75-13.12,1.59S40.42,58.87,41.43,58.84ZM19.71,64.49h0c-1-1.17,26-5.71,26-5.71S20.73,65.67,19.71,64.49ZM28.1,46.21h0c-1.33-2.13,23.23,9,23.23,9S29.5,48.34,28.1,46.21Zm8.22-.54-.06-.05.08.05Zm66.49.47C96,45.68,62.69,56.26,62.69,56.26a1.29,1.29,0,0,0-.07,1.82.91.91,0,0,0,.21.18c19.64,4.57,41.1,5.78,41.1,5.78C107.82,63,106.5,46.37,102.81,46.14ZM96,51.77c.33,1.1-26.7,5-26.7,5S95.65,50.66,96,51.77ZM75,57.22c.6.08,23.09,2.92,23,3.69S75.39,57.3,75,57.22Zm3.71-.31h0s20-4.08,20.52-2.36S78.71,56.91,78.71,56.91Zm23.48,11a267.11,267.11,0,0,0-39.54-8.77,1.27,1.27,0,0,0-.89,1.57v0a1.18,1.18,0,0,0,.07.2s26.54,21.15,33,23.11C98.42,85.14,105.5,70.29,102.19,67.92Zm-33.27-5v0c-3.74-4.21,23.84,14,25,15C93.91,77.85,72.65,67.1,68.92,62.9ZM82.5,66.17c3-.66,14.26,6.32,14.26,6.32S79.43,66.87,82.5,66.17Zm-22.7-13a1.24,1.24,0,0,0,1.43.39C74.6,40,86.29,23,86.29,23c1.07-3.66-13.61-9.55-15.13-7.41-2.55,3.51-6.9,19.15-9.49,29,1.84-10,4.52-25.89,3.83-30.13s-16.25-3.55-16.84.22A262.26,262.26,0,0,0,58.2,53,1.26,1.26,0,0,0,59.8,53.18ZM79.93,26.1c1.14,1.51-15.75,22.28-15.75,22.28S78.78,24.59,79.93,26.1Zm-8.61,3.2c.51.8-8.07,19.66-8.07,19.66S70.82,28.5,71.32,29.3ZM58.94,20.35c1.2-.76,1.33,18.58,1.33,18.58S57.74,21.11,58.94,20.35Zm-5.65.22h0c1.43-1.28,4.52,25.12,4.52,25.12S51.86,21.85,53.29,20.57Zm5,12.89c1-.81.29,13.43.29,13.43s-1.27-12.62-.28-13.43Z" fill="#dbe442"></path><path id="Wheel" d="M99.9,100.17a58.6,58.6,0,1,1,.26-82.88h0A58.62,58.62,0,0,1,99.9,100.17Zm-6.6-76a48.87,48.87,0,1,0-.22,69.12,48.87,48.87,0,0,0,.22-69.12Z" fill="#00b140"></path></g></g></svg> 