<svg id="Icon" data-name="Icon" xmlns="http://www.w3.org/2000/svg" viewBox="0 0 180 180"><title>FreshySites logo</title><g id="Lime"><path id="guts" d="M86,93.07s-36.1,39.85-39.61,49.41c-1.93,5.25,21,17.4,24.8,12.69,0,0,11.75-31,17.43-60.71A1.94,1.94,0,0,0,86,93.07ZM69,151c-1.86-2.61,5.18-25.35,5.18-25.35S70.85,153.62,69,151Zm-1.37-19.1c-1-1.65,11.21-21.8,11.21-21.8S68.67,133.57,67.63,131.92Zm-9.87,2.67C56.14,132,84.2,100,84.2,100S59.37,137.14,57.76,134.59ZM85,92.61a1.83,1.83,0,0,0-1.49-2.37s-50.64,17.9-58,24.11C22.56,116.9,34,138,39.33,136,39.33,136,66.35,114.27,85,92.61ZM59.91,106.13s-18.35,7.19-19.6,5.89S59.91,106.13,59.91,106.13ZM36.68,117.89c-1-.86,24.93-10.74,24.93-10.74S37.64,118.74,36.68,117.89ZM64.23,107s-13.78,9.77-16.28,9.47S64.23,107,64.23,107ZM44.34,127.33c-3.89.15,30.13-28.1,30.13-28.1S48.23,127.17,44.34,127.33Zm39.22-40.4.6.12a1.94,1.94,0,0,0,1.38-2.62s-38-34-47.51-37.5C32.77,45,20.91,66.65,25.63,70.46A417,417,0,0,0,67.28,83.3c-15.15-2.85-36.53-6.47-42.47-5.43-7.09,1.24-5.6,25.61.06,26.5,0,0,31.33-5.74,58.35-15.15A1.85,1.85,0,0,0,83.55,86.93Zm-27-16.35s-7-6.21-8.4-8.41S69.07,76.65,70.65,79.58c0,0-21.76-10-23-12.9S56.54,70.58,56.54,70.58Zm-12.36.82c-2-3.2,34.88,13.51,34.88,13.51S46.2,74.6,44.17,71.4ZM66.55,88.06s-14.81-2.82-15.73-3.28S64.49,85.79,66.55,88.06Zm-2.74,1.31s-34,.47-35.43-1.53S63.81,89.37,63.81,89.37Zm.42,1s-18.18,4.15-19.71,2.39S64.23,90.36,64.23,90.36ZM31.57,98.84C30,97.09,70.68,90.27,70.68,90.27S33.1,100.61,31.57,98.84ZM86,83.43a1.83,1.83,0,0,0,2.37-1.49S71.84,33.64,65.62,26.3c-2.55-3-23.61,7.86-21.55,13.2C44.07,39.5,64.33,64.73,86,83.43ZM61.7,55.26C59.32,47.52,84.84,79,84.84,79S64.08,63,61.7,55.26Zm7.78-9.4c.44-2,12.52,26,11.89,25S69,47.82,69.48,45.86ZM78.39,68.8S61.64,44.1,61.25,38.18,78.39,68.8,78.39,68.8ZM91.77,81.86a1.88,1.88,0,0,0,2.15.59C114,62.06,131.55,36.53,131.55,36.53c1.61-5.5-20.43-14.34-22.72-11.13C105,30.67,98.47,54.16,94.58,68.92c2.76-15,6.79-38.88,5.76-45.25-1-6.21-24.41-5.33-25.3.33C75,24,80,54.58,89.38,81.6A1.84,1.84,0,0,0,91.77,81.86ZM82,32.89c2.15-1.92,6.79,37.73,6.79,37.73S79.85,34.81,82,32.89Zm40,8.31c1.72,2.27-23.65,33.46-23.65,33.46S120.28,38.93,122,41.2ZM109.08,46c.76,1.2-12.13,29.53-12.13,29.53S108.32,44.81,109.08,46ZM90.48,32.57c1.8-1.14,2,27.9,2,27.9S88.68,33.71,90.48,32.57Zm-1,19.68c1.47-1.21.44,20.17.44,20.17S88,53.46,89.49,52.25ZM156.82,73C146.68,72.05,96.2,86.65,96.2,86.65a1.93,1.93,0,0,0,.13,3c29.31,7.61,61.49,10.26,61.49,10.26C163.7,98.44,162.39,73.48,156.82,73ZM146.1,79.74c.49,1.65-40.11,7.45-40.11,7.45S145.62,78.08,146.1,79.74Zm-31.52,8.18s34.71,4.37,34.61,5.55S114.58,87.92,114.58,87.92Zm5.59-.46s30-6.12,30.82-3.54S120.17,87.46,120.17,87.46ZM88.37,96.84s-6.89,48.81-4.81,58.2c1.36,6.14,24.67,3.91,25.24-1.78,0,0-6.68-30.25-17.64-56.69A1.83,1.83,0,0,0,88.37,96.84ZM90,109.44c.7-5.62,1.05,42.11,1.05,42.11S89.32,115.05,90,109.44Zm5.61,7.72c.7-12.64,6.32,35.09,6.32,35.09S94.94,129.79,95.64,117.16Zm-1.75,12.28c.35-8.77,1.75,22.11,1.75,22.11S93.54,138.21,93.89,129.44Zm.54-34.88a1.83,1.83,0,0,0-2.28,1.63s19.29,47.27,25.92,54.24c2.72,2.86,23.12-9.2,20.76-14.43C138.82,136,117.14,112,94.43,94.56Zm8.93,16.28c0-5.27,18.6,31.58,18.6,31.58S103.36,116.1,103.36,110.84Zm10.88,8.42c.35-3.5,10.53,16.85,10.53,16.85S113.89,122.77,114.24,119.26ZM155.44,104s-29.35-9.23-59.38-13.18a1.94,1.94,0,0,0-1.23,2.7s39.85,31.75,49.59,34.7C149.78,129.85,160.37,107.56,155.44,104Zm-50-7.57c-5.62-6.32,35.8,21.06,37.55,22.46C143,118.91,111.08,102.77,105.47,96.45Zm20.35,4.91c4.56-1,21.41,9.48,21.41,9.48S121.26,102.42,125.82,101.36ZM94.7,83.19a1.83,1.83,0,0,0,1.5,2.36c27.58-7.62,56.7-21.75,56.7-21.75,4.15-4-9.63-23.17-13.22-21.54C130.92,46.23,94.7,83.19,94.7,83.19Zm45-21.53c-.06,2.56-25.85,12.72-25.85,12.72S139.77,59.09,139.71,61.65ZM138.43,49c-1.18,5.23-28.29,26.58-28.29,26.58S139.6,43.79,138.43,49Zm-8.36,22.66c-.69,1.56-25.93,7.72-25.93,7.72S130.77,70.11,130.07,71.67Z" style="fill:#DBE442;fill-rule:evenodd"/><path id="wheel" d="M152,152.42A88,88,0,1,1,152.42,28a88,88,0,0,1-.4,124.45ZM142.08,38.27a73.39,73.39,0,1,0-.33,103.79,73.39,73.39,0,0,0,.33-103.79Z" style="fill:#00B140;fill-rule:evenodd"/></g></svg>