<svg xmlns="http://www.w3.org/2000/svg" viewBox="0 0 785.1 145.54"><defs><style>.cls-1{fill:#00b140;}.cls-2{fill:#dbe442;}</style></defs><g id="artwork"><polygon class="cls-1" points="169 115.12 185.28 115.12 185.28 77.22 216.5 77.22 216.5 62.68 185.28 62.68 185.28 37.72 224.77 37.72 224.77 23.18 169 23.18 169 115.12"/><path class="cls-1" d="M370,84.79l-10-2.67c-3.61-.8-6.68-2.67-6.68-5.87,0-3.87,3.34-6.54,8.14-6.54,4.41,0,8.28,2.67,8.28,7.07h14.81c.13-14-12.41-19.48-23.49-19.48-13.61,0-23.22,8.54-23.22,18.28,0,7.88,3.61,15.35,17.62,19.09l8.27,2.13c4.67,1.07,7.34,2.67,7.34,6.14,0,4-4,6.8-10.14,6.8-6.54,0-10.28-4-10.28-8.27H336.09c.27,13.34,12.67,20.82,25.09,20.82,12.67,0,25.35-6.68,25.35-19.35C386.53,97.2,384,88.39,370,84.79Z" transform="translate(-3.45 -5.83)"/><path class="cls-1" d="M430.43,57.3c-6.27,0-16.28,3.34-19.35,10.81V25.28H395.6V121h15.48V88.39c0-12,8.8-15.88,15.88-15.88s12.94,5.08,12.94,14.95V121h15.48V86C455.38,67.84,446.44,57.3,430.43,57.3Z" transform="translate(-3.45 -5.83)"/><polygon class="cls-1" points="486.13 92.3 469.99 52.8 453.04 52.8 477.86 110.85 463.85 145.54 480.13 145.54 518.83 52.8 502.15 52.8 486.13 92.3"/><path class="cls-1" d="M567,68.11l-10.94-2.93C545.54,62.51,544.74,57,544.74,54.5c0-7.21,6.54-12,14.42-12,8.54,0,14.27,5.47,14.27,13.08h16.15c0-17.22-13.21-27.62-30-27.62s-31.22,10.54-31.22,26.82c0,8,3.47,19.88,23.22,24.95L563,82.92c7.75,2.14,13.22,5.87,13.22,12.28,0,7.2-6,12.54-15.35,12.54-10.14,0-16.95-6.54-17.08-13.61H527.66c0,15.48,13.21,28.16,32.83,28.16,18,0,32-11,32-27.76C592.51,79.85,581.44,72.11,567,68.11Z" transform="translate(-3.45 -5.83)"/><rect class="cls-1" x="599.38" y="52.8" width="15.48" height="62.32"/><polygon class="cls-1" points="651.69 29.85 636.21 29.85 636.21 52.8 625 52.8 625 65.21 636.21 65.21 636.21 115.12 651.69 115.12 651.69 65.21 664.9 65.21 664.9 52.8 651.69 52.8 651.69 29.85"/><path class="cls-1" d="M772,84.79l-10-2.67c-3.6-.8-6.67-2.67-6.67-5.87,0-3.87,3.34-6.54,8.14-6.54,4.4,0,8.28,2.67,8.28,7.07h14.81c.13-14-12.41-19.48-23.49-19.48-13.61,0-23.22,8.54-23.22,18.28,0,7.88,3.6,15.35,17.62,19.09l8.27,2.13c4.67,1.07,7.34,2.67,7.34,6.14,0,4-4,6.8-10.14,6.8-6.54,0-10.28-4-10.28-8.27H738.11c.26,13.34,12.67,20.82,25.09,20.82,12.67,0,25.35-6.68,25.35-19.35C788.55,97.2,786,88.39,772,84.79Z" transform="translate(-3.45 -5.83)"/><path class="cls-1" d="M273.14,59.36a23.23,23.23,0,0,0-10-2.06c-7.74,0-14.55,4.27-17.88,14.68V58.64H229.79V121H245.4V99.2c0-17.48,5.61-27.35,15.75-27.35a16.7,16.7,0,0,1,1.92.1A39.84,39.84,0,0,1,273.14,59.36Z" transform="translate(-3.45 -5.83)"/><path class="cls-1" d="M710.78,107a18.89,18.89,0,0,1-22.17-4.18l23.2-11.32,21.82-10.64a31.24,31.24,0,0,0-1.93-5.07,32.62,32.62,0,1,0,3,18.34H720.91A18.79,18.79,0,0,1,710.78,107ZM694.22,73.05a18.89,18.89,0,0,1,22.17,4.18L683.87,93.09A18.9,18.9,0,0,1,694.22,73.05Z" transform="translate(-3.45 -5.83)"/><path class="cls-1" d="M306.79,107a18.88,18.88,0,0,1-22.16-4.18l23.2-11.32,21.82-10.64a31.24,31.24,0,0,0-1.93-5.07,32.62,32.62,0,1,0,3,18.34H316.93A18.8,18.8,0,0,1,306.79,107ZM290.24,73.05a18.88,18.88,0,0,1,22.16,4.18L279.89,93.09A18.88,18.88,0,0,1,290.24,73.05Z" transform="translate(-3.45 -5.83)"/><path class="cls-1" d="M610.57,29.23c-5.08,0-9.42,3.72-9.42,8.8s4.34,8.8,9.42,8.8,9.3-3.84,9.3-8.8S615.77,29.23,610.57,29.23Z" transform="translate(-3.45 -5.83)"/><path class="cls-1" d="M119.42,25.86a67.85,67.85,0,1,0-.31,96l0,0a67.87,67.87,0,0,0,.31-96Zm-8.21,88a56.59,56.59,0,1,1,.26-80h0A56.61,56.61,0,0,1,111.21,113.84Z" transform="translate(-3.45 -5.83)"/><path class="cls-2" d="M68.16,69.15a1.36,1.36,0,0,0,1.71-.88,1.55,1.55,0,0,0,0-.23S57.67,32.23,53.06,26.78c-1.89-2.22-17.51,5.83-16,9.79C37.08,36.57,52.1,55.28,68.16,69.15Zm-18-20.89c-1.77-5.74,17.15,17.6,17.15,17.6S51.91,54,50.15,48.26Zm5.77-7c.32-1.49,9.28,19.28,8.81,18.54S55.56,42.74,55.92,41.29Zm6.6,17S50.1,40,49.82,35.59,62.52,58.3,62.52,58.3Z" transform="translate(-3.45 -5.83)"/><path class="cls-2" d="M74.41,77.4h0a1.36,1.36,0,0,0-1.65,1,1.85,1.85,0,0,0,0,.23S87,113.67,91.92,118.84c2,2.12,17.14-6.83,15.39-10.71C107.32,108.13,91.25,90.34,74.41,77.4ZM81,89.48h0C81,85.57,94.8,112.9,94.8,112.9S81,93.38,81,89.48Zm8.07,6.24h0c.26-2.6,7.81,12.5,7.81,12.5S88.84,98.32,89.1,95.72Z" transform="translate(-3.45 -5.83)"/><path class="cls-2" d="M74.61,69a1.36,1.36,0,0,0,.89,1.7l.23,0c20.44-5.65,42-16.13,42-16.13,3.08-3-7.14-17.18-9.8-16C101.47,41.56,74.61,69,74.61,69ZM108,53h0c0,1.9-19.17,9.44-19.17,9.44S108,51.1,108,53Zm-1-9.38c-.87,3.87-21,19.71-21,19.71S107.9,39.75,107,43.62Zm-6.19,16.8h0c-.52,1.16-19.23,5.73-19.23,5.73S101.26,59.31,100.84,60.42Z" transform="translate(-3.45 -5.83)"/><path class="cls-2" d="M68.4,76.23a1.09,1.09,0,0,0-.24.07S41.4,105.85,38.8,112.94c-1.43,3.89,15.57,12.9,18.38,9.41,0,0,8.72-23,12.93-45A1.44,1.44,0,0,0,68.4,76.23Zm-12.84,43c-1.38-1.94,3.84-18.8,3.84-18.8S56.93,121.2,55.56,119.26Zm-1-14.15v0c-.75-1.22,8.31-16.16,8.31-16.16S55.32,106.33,54.55,105.11Zm-7.32,2v0c-1.2-1.9,19.6-25.63,19.6-25.63S48.42,109,47.23,107.09Z" transform="translate(-3.45 -5.83)"/><path class="cls-2" d="M67.42,76a1.35,1.35,0,0,0-.88-1.71l-.22,0s-37.54,13.27-43,17.88c-2.19,1.89,6.29,17.54,10.25,16C33.57,108.13,53.6,92,67.42,76ZM48.82,86s-13.6,5.34-14.53,4.37S48.82,86,48.82,86ZM31.6,94.7c-.74-.63,18.48-8,18.48-8S32.31,95.33,31.6,94.7ZM52,86.63s-10.22,7.24-12.07,7S52,86.63,52,86.63ZM37.28,101.71c-2.88.11,22.34-20.84,22.34-20.84S40.16,101.59,37.28,101.71Z" transform="translate(-3.45 -5.83)"/><path class="cls-2" d="M70.22,78.94l-.15.19s-4,36.33-2.26,43.25c1.14,4.52,18.37,2.34,18.66-1.89,0,0-5.62-22.27-14.33-41.62A1.36,1.36,0,0,0,70.22,78.94Zm.91,9.5c.52-4.17.78,31.23.78,31.23S70.63,92.6,71.13,88.44Zm4.16,5.72c.52-9.37,4.68,26,4.68,26s-5.18-16.66-4.66-26ZM74,103.27c.26-6.5,1.3,16.4,1.3,16.4s-1.54-9.9-1.28-16.4Z" transform="translate(-3.45 -5.83)"/><path class="cls-2" d="M66.35,71.74h0l.44.09a1.42,1.42,0,0,0,1.09-1.71.88.88,0,0,0-.07-.23S39.65,44.68,32.6,42.08c-3.9-1.43-12.69,14.63-9.19,17.45a307.63,307.63,0,0,0,30.88,9.52c-11.24-2.11-27.09-4.8-31.49-4-5.26.92-4.15,19,0,19.65,0,0,23.23-4.26,43.26-11.24A1.38,1.38,0,0,0,66.35,71.74Zm-20-12.12h0S41.15,55,40.11,53.38s15.5,10.74,16.67,12.91c0,0-16.13-7.41-17.05-9.56S46.32,59.62,46.32,59.62Zm7.43,13s-11-2.09-11.67-2.43S52.22,70.9,53.75,72.58Zm-2,1s-25.2.35-26.26-1.13S51.71,73.55,51.71,73.55Zm.32.74h0s-13.48,3.07-14.62,1.77S52,74.29,52,74.29ZM27.81,80.58c-1.16-1.3,29-6.36,29-6.36S29,81.89,27.81,80.58Zm9.34-20.35h0c-1.49-2.38,25.85,10,25.85,10S38.66,62.6,37.15,60.23Z" transform="translate(-3.45 -5.83)"/><path class="cls-2" d="M120.33,60.15c-7.53-.51-44.67,11.27-44.67,11.27a1.43,1.43,0,0,0-.07,2,1.37,1.37,0,0,0,.22.2c21.87,5.09,45.77,6.44,45.77,6.44C125.91,78.88,124.47,60.4,120.33,60.15Zm-7.61,6.26C113.08,67.64,83,71.94,83,71.94S112.36,65.18,112.72,66.41ZM89.35,72.48s25.74,3.24,25.66,4.11S89.35,72.48,89.35,72.48Zm4.15-.34s22.24-4.54,22.85-2.63S93.5,72.14,93.5,72.14Z" transform="translate(-3.45 -5.83)"/><path class="cls-2" d="M119.65,84.4a297.94,297.94,0,0,0-44-9.77,1.43,1.43,0,0,0-1,1.77,1.55,1.55,0,0,0,.08.23s29.54,23.55,36.77,25.74C115.45,103.57,123.3,87,119.65,84.4ZM82.6,78.8h0c-4.17-4.69,26.54,15.62,27.84,16.66C110.42,95.46,86.76,83.49,82.6,78.8Zm15.09,3.65,0,0c3.38-.74,15.88,7,15.88,7S94.31,83.23,97.69,82.45Z" transform="translate(-3.45 -5.83)"/><path class="cls-2" d="M72.44,68a1.4,1.4,0,0,0,1.6.44c14.88-15.12,27.89-34.05,27.89-34.05,1.2-4.08-15.14-10.64-16.84-8.26C82.25,30,77.41,47.44,74.53,58.39c2-11.13,5-28.83,4.27-33.56S60.7,20.88,60,25.08c0,0,3.68,22.67,10.63,42.71A1.35,1.35,0,0,0,72.44,68ZM94.85,37.83c1.28,1.68-17.53,24.82-17.53,24.82S93.58,36.15,94.85,37.83Zm-9.57,3.56c.56.89-9,21.9-9,21.9S84.71,40.51,85.28,41.39Zm-13.79-10C72.82,30.59,73,52.12,73,52.12S70.15,32.28,71.49,31.43Zm-6.29.24c1.59-1.43,5,28,5,28S63.61,33.09,65.2,31.67ZM70.74,46c1.09-.9.33,14.95.33,14.95S69.65,46.92,70.75,46Z" transform="translate(-3.45 -5.83)"/></g></svg>