<?xml version="1.0" encoding="utf-8"?>
<!-- Generator: Adobe Illustrator 24.0.2, SVG Export Plug-In . SVG Version: 6.00 Build 0)  -->
<svg version="1.1" xmlns="http://www.w3.org/2000/svg" xmlns:xlink="http://www.w3.org/1999/xlink" x="0px" y="0px"
	 viewBox="0 0 157.3 157.2" style="enable-background:new 0 0 157.3 157.2;" xml:space="preserve">
<style type="text/css">
	.st0{fill:#FFFFFF;}
</style>
<g id="master_page">
</g>
<g id="artwork">
	<g>
		<path class="st0" d="M131.6,25.5C102.3-4,54.6-4.1,25.1,25.2c-29.5,29.3-29.6,77-0.3,106.5c29.3,29.5,77,29.6,106.4,0.3l0,0
			C160.7,102.7,160.9,55,131.6,25.5C131.6,25.5,131.6,25.5,131.6,25.5z M122.5,123.1c-24.6,24.4-64.3,24.3-88.8-0.3
			C9.3,98.2,9.4,58.5,34,34.1c24.6-24.4,64.3-24.3,88.8,0.3c0,0,0,0,0,0C147.2,58.9,147.1,98.7,122.5,123.1z"/>
	</g>
	<g>
		<path class="st0" d="M74.7,73.6c0.8,0.3,1.6-0.2,1.9-1c0-0.1,0-0.2,0.1-0.3c0,0-13.6-39.7-18.7-45.8c-2.1-2.5-19.4,6.5-17.7,10.9
			C40.2,37.4,56.9,58.2,74.7,73.6z M54.7,50.4c-2-6.4,19,19.5,19,19.5S56.7,56.7,54.7,50.4z M61.1,42.6C61.5,41,71.4,64,70.9,63.2
			C70.4,62.4,60.7,44.3,61.1,42.6z M68.4,61.5c0,0-13.8-20.3-14.1-25.2C54,31.5,68.4,61.5,68.4,61.5z"/>
		<path class="st0" d="M81.6,82.7L81.6,82.7c-0.8-0.2-1.7,0.3-1.9,1.1c0,0.1,0,0.2,0,0.3c0,0,15.9,38.9,21.3,44.6
			c2.2,2.4,19-7.6,17.1-11.9C118.2,116.8,100.3,97.1,81.6,82.7z M89,96.1L89,96.1c0-4.3,15.3,26,15.3,26S89,100.4,89,96.1z
			 M97.9,103L97.9,103c0.3-2.9,8.6,13.9,8.6,13.9S97.6,105.9,97.9,103z"/>
		<path class="st0" d="M81.9,73.4c-0.2,0.8,0.2,1.6,1,1.9c0.1,0,0.2,0,0.2,0.1c22.7-6.3,46.6-17.9,46.6-17.9
			c3.4-3.3-7.9-19.1-10.9-17.7C111.7,42.9,81.9,73.4,81.9,73.4z M118.9,55.6L118.9,55.6c-0.1,2.1-21.3,10.5-21.3,10.5
			S118.9,53.5,118.9,55.6z M117.8,45.2c-1,4.3-23.3,21.9-23.3,21.9S118.8,40.9,117.8,45.2z M111,63.9C111,63.9,111,63.9,111,63.9
			L111,63.9C111,63.9,111,63.9,111,63.9c-0.6,1.3-21.3,6.4-21.3,6.4S111.4,62.6,111,63.9z"/>
		<path class="st0" d="M75,81.4c-0.1,0-0.2,0-0.3,0.1c0,0-29.7,32.8-32.6,40.7c-1.6,4.3,17.3,14.3,20.4,10.4c0,0,9.7-25.5,14.3-49.9
			C76.7,81.8,75.8,81.2,75,81.4z M60.7,129.1c-1.5-2.1,4.3-20.9,4.3-20.9S62.2,131.3,60.7,129.1z M59.6,113.4L59.6,113.4
			c-0.8-1.4,9.2-18,9.2-18S60.5,114.8,59.6,113.4z M51.5,115.6L51.5,115.6c-1.3-2.1,21.7-28.5,21.7-28.5S52.8,117.7,51.5,115.6z"/>
		<path class="st0" d="M73.9,81.1c0.3-0.8-0.2-1.6-1-1.9c-0.1,0-0.2,0-0.3-0.1c0,0-41.7,14.7-47.7,19.8c-2.4,2.1,7,19.5,11.4,17.8
			C36.3,116.8,58.5,98.9,73.9,81.1z M53.2,92.2c0,0-15.1,5.9-16.1,4.8C36.1,96,53.2,92.2,53.2,92.2z M34.1,101.9
			c-0.8-0.7,20.5-8.8,20.5-8.8S34.9,102.6,34.1,101.9z M56.8,92.9c0,0-11.3,8-13.4,7.8C41.4,100.5,56.8,92.9,56.8,92.9z M40.4,109.7
			c-3.2,0.1,24.8-23.1,24.8-23.1S43.6,109.5,40.4,109.7z"/>
		<path class="st0" d="M77,84.4c-0.1,0.1-0.1,0.1-0.2,0.2c0,0-4.5,40.3-2.5,48c1.3,5,20.4,2.6,20.7-2.1c0,0-6.2-24.7-15.9-46.2
			C78.5,83.8,77.6,83.8,77,84.4z M78,95c0.6-4.6,0.9,34.6,0.9,34.6S77.4,99.6,78,95z M82.6,101.3c0.6-10.4,5.2,28.9,5.2,28.9
			S82.1,111.7,82.6,101.3L82.6,101.3z M81.2,111.4c0.3-7.2,1.4,18.2,1.4,18.2S80.9,118.6,81.2,111.4L81.2,111.4z"/>
		<path class="st0" d="M72.7,76.4L72.7,76.4l0.5,0.1c0.9-0.2,1.4-1,1.2-1.9c0-0.1,0-0.2-0.1-0.3c0,0-31.3-28-39.1-30.9
			c-4.3-1.6-14.1,16.2-10.2,19.4c11.2,4.1,22.7,7.6,34.3,10.6c-12.5-2.3-30-5.3-34.9-4.5c-5.8,1-4.6,21.1,0,21.8
			c0,0,25.8-4.7,48-12.5C72.9,77.8,73.1,77,72.7,76.4z M50.5,63L50.5,63c0,0-5.7-5.1-6.9-6.9C42.4,54.2,60.8,68,62.1,70.4
			c0,0-17.9-8.2-18.9-10.6S50.5,63,50.5,63z M58.7,77.4c0,0-12.2-2.3-12.9-2.7C45,74.3,57,75.5,58.7,77.4z M56.5,78.4
			c0,0-28,0.4-29.1-1.3C26.1,75.5,56.5,78.4,56.5,78.4z M56.8,79.3L56.8,79.3c0,0-15,3.4-16.2,2C39.3,79.8,56.8,79.3,56.8,79.3z
			 M29.9,86.2c-1.3-1.4,32.2-7.1,32.2-7.1S31.2,87.7,29.9,86.2z M40.3,63.7L40.3,63.7C38.7,61,69,74.8,69,74.8S42,66.3,40.3,63.7z"
			/>
		<path class="st0" d="M132.6,63.6C124.2,63,83,76.1,83,76.1c-0.6,0.6-0.7,1.6-0.1,2.2c0.1,0.1,0.2,0.2,0.3,0.2
			c24.3,5.6,50.8,7.1,50.8,7.1C138.8,84.3,137.2,63.8,132.6,63.6z M124.1,70.5c0.4,1.4-33,6.1-33,6.1S123.7,69.1,124.1,70.5z
			 M98.2,77.2c0,0,28.5,3.6,28.5,4.6C126.6,82.8,98.2,77.2,98.2,77.2z M102.8,76.9c0,0,24.7-5,25.3-2.9
			C128.8,76.1,102.8,76.9,102.8,76.9z"/>
		<path class="st0" d="M131.8,90.5c0,0-24.1-7.6-48.8-10.8c-0.8,0.2-1.3,1.1-1.1,2c0,0.1,0.1,0.2,0.1,0.3c0,0,32.8,26.1,40.8,28.5
			C127.2,111.7,135.9,93.4,131.8,90.5z M90.7,84.3L90.7,84.3c-4.6-5.2,29.4,17.3,30.9,18.5C121.6,102.7,95.3,89.5,90.7,84.3z
			 M107.5,88.3L107.5,88.3c3.7-0.8,17.6,7.8,17.6,7.8S103.7,89.2,107.5,88.3z"/>
		<path class="st0" d="M79.5,72.3c0.4,0.5,1.1,0.7,1.8,0.5c16.5-16.8,31-37.8,31-37.8c1.3-4.5-16.8-11.8-18.7-9.2
			c-3.2,4.3-8.5,23.7-11.7,35.8c2.3-12.3,5.6-32,4.7-37.2c-0.8-5.1-20.1-4.4-20.8,0.3c0,0,4.1,25.2,11.8,47.4
			C78,72.6,78.8,72.7,79.5,72.3z M104.3,38.8c1.4,1.9-19.5,27.5-19.5,27.5S102.9,36.9,104.3,38.8z M93.7,42.8c0.6,1-10,24.3-10,24.3
			S93.1,41.8,93.7,42.8z M78.4,31.7c1.5-0.9,1.6,23,1.6,23S76.9,32.6,78.4,31.7z M71.4,32c1.8-1.6,5.6,31,5.6,31S69.6,33.5,71.4,32z
			 M77.6,47.9c1.2-1,0.4,16.6,0.4,16.6S76.4,48.9,77.6,47.9L77.6,47.9z"/>
	</g>
	<g>
	</g>
	<g>
	</g>
	<g>
	</g>
	<g>
	</g>
	<g>
	</g>
	<g>
	</g>
</g>
</svg>
